<svg width="237" height="51" viewBox="0 0 237 51" fill="none" xmlns="http://www.w3.org/2000/svg">
<path d="M25.85 15.7C25.1833 15.2333 24.6167 14.7667 24.15 14.3C23.7167 13.8 23.35 13.2667 23.05 12.7C22.75 12.1333 22.5 11.5167 22.3 10.85C22.1 10.1833 21.9333 9.45 21.8 8.65C21.3333 8.28333 20.5833 8.05 19.55 7.95C18.5167 7.85 17.4667 7.8 16.4 7.8C15.5333 7.8 14.7833 7.81666 14.15 7.85C13.5167 7.88333 12.9667 7.9 12.5 7.9C12.2 8.73333 12 10.1667 11.9 12.2C11.8 14.2 11.75 16.5 11.75 19.1C11.75 20.5 11.75 21.9333 11.75 23.4C11.7833 24.8667 11.8 26.3167 11.8 27.75C11.8333 29.1833 11.85 30.5833 11.85 31.95C11.8833 33.2833 11.9 34.5333 11.9 35.7C12.9 35.9333 13.7167 36.15 14.35 36.35C14.9833 36.5167 15.6 36.6667 16.2 36.8C16.8 36.9 17.4833 37 18.25 37.1C19.0167 37.1667 20.0333 37.2333 21.3 37.3C21.3667 37.0333 21.4 36.4667 21.4 35.6C21.4333 34.7 21.45 33.6667 21.45 32.5C21.45 31.2 21.4333 30.1167 21.4 29.25C21.4 28.3833 21.3667 27.5167 21.3 26.65C20.8667 26.65 20.5 26.6167 20.2 26.55C19.9333 26.45 19.6 26.35 19.2 26.25C18.8333 26.15 18.3333 26.05 17.7 25.95C17.1 25.85 16.2833 25.7667 15.25 25.7C15.3833 25.4667 15.55 25.1667 15.75 24.8C15.95 24.4 16.15 23.9833 16.35 23.55C16.55 23.1167 16.7167 22.7167 16.85 22.35C17.0167 21.95 17.1333 21.6167 17.2 21.35C18.4667 21.6167 19.7 21.8167 20.9 21.95C22.1333 22.0833 23.3 22.15 24.4 22.15C25.5333 22.15 26.5667 22.0833 27.5 21.95C28.4333 21.7833 29.2167 21.5167 29.85 21.15C29.75 21.4167 29.5667 21.8 29.3 22.3C29.0667 22.7667 28.8167 23.2833 28.55 23.85C28.2833 24.3833 28.05 24.9167 27.85 25.45C27.65 25.9833 27.55 26.45 27.55 26.85C27.65 28.25 27.7333 29.6 27.8 30.9C27.8667 32.2 27.9333 33.3833 28 34.45C28.1 35.4833 28.1833 36.35 28.25 37.05C28.3167 37.75 28.4 38.2 28.5 38.4C26.9333 38.7667 25.45 39.3333 24.05 40.1C22.65 40.9 21.0167 42.0833 19.15 43.65C17.6833 42.75 16.1167 41.9833 14.45 41.35C12.7833 40.7167 11.1333 40.1667 9.5 39.7C7.9 39.2 6.35 38.7667 4.85 38.4C3.38333 38.0333 2.1 37.6667 1 37.3C1.53333 37.1667 1.98333 36.85 2.35 36.35C2.75 35.8167 3.06667 35.1667 3.3 34.4C3.56667 33.6333 3.76667 32.7833 3.9 31.85C4.03333 30.8833 4.1 29.9167 4.1 28.95C4.1 27.45 3.93333 26.0167 3.6 24.65C3.3 23.2833 2.86667 22.25 2.3 21.55C2.83333 21.0167 3.26667 20.3167 3.6 19.45C3.96667 18.55 4.25 17.6 4.45 16.6C4.65 15.5667 4.78333 14.5167 4.85 13.45C4.91667 12.3833 4.95 11.3833 4.95 10.45C4.95 9.68333 4.93333 9.01667 4.9 8.45C4.86667 7.88333 4.83333 7.45 4.8 7.15C4.03333 6.88333 3.23333 6.33333 2.4 5.5C1.6 4.66666 1 3.76667 0.6 2.8C2.73333 3.03333 4.75 3.2 6.65 3.3C8.58333 3.36666 10.4 3.4 12.1 3.4C15.8 3.4 18.8333 3.28333 21.2 3.05C23.5667 2.81666 25.4 2.7 26.7 2.7C26.9667 2.7 27.2 2.71666 27.4 2.75C27.6 2.75 27.7833 2.76666 27.95 2.8C27.8167 3.1 27.6667 3.61667 27.5 4.35C27.3667 5.05 27.2167 5.85 27.05 6.75C26.8833 7.61666 26.7333 8.55 26.6 9.55C26.4667 10.5167 26.3333 11.4333 26.2 12.3C26.1 13.1333 26.0167 13.8667 25.95 14.5C25.8833 15.1333 25.85 15.5333 25.85 15.7ZM72.7184 42.8C70.8184 42.1333 68.935 41.4 67.0684 40.6C65.235 39.8333 63.4184 38.9167 61.6184 37.85C61.185 38.2833 60.8017 38.65 60.4684 38.95C60.135 39.25 59.785 39.5167 59.4184 39.75C59.0517 39.95 58.6517 40.1167 58.2184 40.25C57.8184 40.4167 57.335 40.5667 56.7684 40.7C57.1017 40.3 57.335 39.8167 57.4684 39.25C57.6017 38.6833 57.6684 38.1 57.6684 37.5C57.6684 36.5333 57.535 35.6 57.2684 34.7C57.035 33.7667 56.8184 32.9833 56.6184 32.35L55.4184 28.55C54.4517 29.8167 53.485 31.2167 52.5184 32.75C51.585 34.2833 50.7684 35.75 50.0684 37.15C49.5017 36.35 48.735 35.2167 47.7684 33.75C46.835 32.2833 45.785 30.7 44.6184 29L43.8184 31.6C43.6184 32.2667 43.4517 32.9333 43.3184 33.6C43.2184 34.2667 43.1684 34.95 43.1684 35.65C43.1684 36.6833 43.3017 37.7 43.5684 38.7C43.835 39.7 44.2684 40.6333 44.8684 41.5C44.2017 41.2667 43.635 41.0333 43.1684 40.8C42.735 40.5667 42.3184 40.3 41.9184 40C41.5517 39.7 41.1684 39.3833 40.7684 39.05C40.4017 38.6833 39.9684 38.2667 39.4684 37.8C38.0684 39.1333 36.685 40.0667 35.3184 40.6C33.9517 41.1667 32.4184 41.4667 30.7184 41.5C31.3517 41.4 32.0184 40.9833 32.7184 40.25C33.4184 39.55 34.1017 38.6333 34.7684 37.5C35.435 36.3333 36.0684 35.0167 36.6684 33.55C37.3017 32.0833 37.8517 30.5333 38.3184 28.9L39.9184 23.3C38.7517 22.0667 37.485 21.0167 36.1184 20.15C34.7517 19.25 33.5184 18.8 32.4184 18.8C32.3517 18.8 32.2684 18.8 32.1684 18.8C32.0684 18.8 31.8684 18.8167 31.5684 18.85L31.5184 18.7C32.9517 17.9667 34.285 17.6 35.5184 17.6C36.3517 17.6 37.2017 17.7667 38.0684 18.1C38.935 18.4 39.935 18.8667 41.0684 19.5L43.7684 10.25C43.935 9.68333 44.0517 9.18333 44.1184 8.75C44.185 8.31667 44.2184 7.96667 44.2184 7.7C44.2184 7 44.0017 6.5 43.5684 6.2C43.1684 5.9 42.435 5.75 41.3684 5.75C40.7017 5.75 39.985 5.8 39.2184 5.9C38.4517 6 37.535 6.15 36.4684 6.35C36.6684 6.05 37.1517 5.7 37.9184 5.3C38.685 4.9 39.6017 4.51667 40.6684 4.15C41.7684 3.78333 42.935 3.48333 44.1684 3.25C45.435 2.98333 46.6517 2.85 47.8184 2.85C48.685 2.85 49.5184 2.95 50.3184 3.15C51.1184 3.35 51.7184 3.7 52.1184 4.2C52.7184 4.16667 53.3684 4.08333 54.0684 3.95C54.7684 3.81667 55.435 3.66667 56.0684 3.5C56.7017 3.3 57.2684 3.11666 57.7684 2.95C58.2684 2.75 58.6017 2.6 58.7684 2.5C58.3017 3.16667 57.9517 3.96667 57.7184 4.9C57.5184 5.8 57.4184 6.78333 57.4184 7.85C57.4184 9.21666 57.5684 10.65 57.8684 12.15C58.1684 13.6167 58.5184 14.9833 58.9184 16.25C59.3517 17.5167 59.8017 18.6 60.2684 19.5C60.735 20.4 61.135 20.95 61.4684 21.15C61.4684 23.1167 61.8017 25.2 62.4684 27.4C63.1684 29.6 64.0517 31.7 65.1184 33.7C66.2184 35.7 67.435 37.5 68.7684 39.1C70.135 40.6667 71.4684 41.85 72.7684 42.65L72.7184 42.8ZM50.0184 28.95C50.585 28.1833 51.2184 27.3667 51.9184 26.5C52.6517 25.6 53.3184 24.7167 53.9184 23.85L50.0684 11.35L46.1184 24.25C46.785 24.95 47.4517 25.7333 48.1184 26.6C48.8184 27.4667 49.4517 28.25 50.0184 28.95ZM98.7738 3.55C97.9738 4.25 97.0905 4.91667 96.1238 5.55C95.1905 6.18333 94.2072 6.73333 93.1738 7.2C92.1405 7.66667 91.0738 8.05 89.9738 8.35C88.8738 8.61667 87.7738 8.75 86.6738 8.75C86.3072 8.75 85.9572 8.75 85.6238 8.75C85.2905 8.75 84.9572 8.73333 84.6238 8.7C84.5238 9.7 84.4738 10.7167 84.4738 11.75C84.4738 14.5833 84.4905 17.4333 84.5238 20.3C84.5572 23.1667 84.5738 26.2167 84.5738 29.45C84.5738 31.1833 84.8738 32.8667 85.4738 34.5C86.1072 36.1 87.0072 37.2667 88.1738 38C86.7738 38.6667 85.5905 39.3667 84.6238 40.1C83.6905 40.8667 82.8572 41.95 82.1238 43.35C81.5572 41.9833 80.6738 40.8833 79.4738 40.05C78.2738 39.25 76.9238 38.5667 75.4238 38C76.0905 37.0333 76.5905 35.7833 76.9238 34.25C77.2572 32.6833 77.4238 31.1667 77.4238 29.7C77.4238 28.2667 77.4238 27 77.4238 25.9C77.4238 24.7667 77.4238 23.7167 77.4238 22.75C77.4572 21.7833 77.4738 20.85 77.4738 19.95C77.5072 19.05 77.5238 18.0833 77.5238 17.05C77.5572 16.0167 77.5738 14.8833 77.5738 13.65C77.5738 12.4167 77.5738 10.9667 77.5738 9.3C77.5738 9.03333 77.5738 8.78333 77.5738 8.55C77.5738 8.31667 77.5405 8.06666 77.4738 7.8C75.2738 7.4 73.1738 7 71.1738 6.6C69.2072 6.16666 67.4072 5.95 65.7738 5.95C65.0405 5.95 64.2572 6.03333 63.4238 6.2L63.3738 6.05C65.1738 5.51666 66.6405 4.86666 67.7738 4.1C68.9405 3.33333 70.1072 2.41666 71.2738 1.35C73.0072 1.85 74.4738 2.25 75.6738 2.55C76.9072 2.85 78.0405 3.08333 79.0738 3.25C80.1405 3.41667 81.1738 3.53333 82.1738 3.6C83.2072 3.63333 84.3738 3.65 85.6738 3.65C85.3405 3.08333 85.1072 2.58333 84.9738 2.15C84.8405 1.68333 84.7572 1.2 84.7238 0.699999C85.8238 1.4 86.8405 1.95 87.7738 2.35C88.7405 2.71666 89.6572 3 90.5238 3.2C91.3905 3.36667 92.2572 3.46667 93.1238 3.5C93.9905 3.53333 94.8905 3.55 95.8238 3.55C96.3572 3.55 96.8405 3.53333 97.2738 3.5C97.7405 3.46667 98.2072 3.41667 98.6738 3.35L98.7738 3.55ZM108.928 34.35C109.528 34.6833 110.078 34.9833 110.578 35.25C111.078 35.5167 111.578 35.7667 112.078 36C112.611 36.2 113.178 36.3833 113.778 36.55C114.378 36.7167 115.061 36.8667 115.828 37C117.228 36.3 118.345 35.85 119.178 35.65C120.011 35.4167 120.561 35.2167 120.828 35.05C120.895 31.8167 120.945 28.4333 120.978 24.9C121.045 21.3333 121.078 17.95 121.078 14.75C121.078 13.9167 121.078 13.1 121.078 12.3C121.078 11.4667 121.045 10.6667 120.978 9.9C120.378 9.56666 119.828 9.26666 119.328 9C118.828 8.73333 118.311 8.5 117.778 8.3C117.278 8.06667 116.728 7.86667 116.128 7.7C115.561 7.53333 114.895 7.38333 114.128 7.25C112.728 7.95 111.595 8.43333 110.728 8.7C109.895 8.96666 109.345 9.18333 109.078 9.35C109.045 10.1833 109.011 11.2 108.978 12.4C108.945 13.5667 108.911 14.8333 108.878 16.2C108.878 17.5667 108.878 19 108.878 20.5C108.878 22 108.878 23.4667 108.878 24.9C108.878 26.4 108.878 28.0167 108.878 29.75C108.911 31.4833 108.928 33.0167 108.928 34.35ZM99.9281 21.9C100.361 21.4333 100.745 20.85 101.078 20.15C101.445 19.4167 101.761 18.6333 102.028 17.8C102.295 16.9333 102.495 16.0333 102.628 15.1C102.795 14.1667 102.878 13.25 102.878 12.35C102.878 10.8167 102.645 9.36666 102.178 8C101.711 6.63333 100.945 5.63333 99.8781 5C100.911 4.93333 102.028 4.8 103.228 4.6C104.461 4.4 105.695 4.15 106.928 3.85C108.161 3.55 109.345 3.23333 110.478 2.9C111.611 2.53333 112.611 2.15 113.478 1.75C114.578 1.91666 115.878 2.2 117.378 2.6C118.911 2.96666 120.428 3.35 121.928 3.75C123.428 4.15 124.795 4.51666 126.028 4.85C127.295 5.18333 128.211 5.36667 128.778 5.4C128.311 6.16667 127.978 7.13333 127.778 8.3C127.578 9.43333 127.478 10.6167 127.478 11.85C127.478 13.7167 127.711 15.5833 128.178 17.45C128.645 19.2833 129.311 20.7833 130.178 21.95C129.345 22.9833 128.661 24.4 128.128 26.2C127.595 27.9667 127.328 29.8 127.328 31.7C127.328 33.2333 127.561 34.6667 128.028 36C128.495 37.3333 129.261 38.3333 130.328 39C129.295 39.0667 128.145 39.2 126.878 39.4C125.645 39.6 124.395 39.85 123.128 40.15C121.895 40.45 120.695 40.7667 119.528 41.1C118.361 41.4667 117.361 41.85 116.528 42.25C115.428 42.1167 114.128 41.8667 112.628 41.5C111.128 41.1333 109.628 40.75 108.128 40.35C106.661 39.95 105.311 39.5833 104.078 39.25C102.845 38.8833 101.961 38.6667 101.428 38.6C101.895 38.1667 102.211 37.4667 102.378 36.5C102.578 35.5 102.678 34.3667 102.678 33.1C102.678 31.9333 102.595 30.7167 102.428 29.45C102.295 28.15 102.095 26.9667 101.828 25.9C101.595 24.8 101.311 23.8833 100.978 23.15C100.645 22.4167 100.295 22 99.9281 21.9ZM158.498 33.5C158.332 30.2 158.198 27.0333 158.098 24C158.032 20.9667 157.965 18.2833 157.898 15.95C157.865 13.6167 157.832 11.75 157.798 10.35C157.798 8.95 157.798 8.23333 157.798 8.2C157.632 6.16667 156.582 4.76667 154.648 4C154.982 4.03333 155.298 4.05 155.598 4.05C155.932 4.05 156.265 4.05 156.598 4.05C158.098 4.05 159.465 3.98333 160.698 3.85C161.965 3.68333 163.115 3.51666 164.148 3.35C165.182 3.18333 166.115 3.03333 166.948 2.9C167.815 2.73333 168.615 2.65 169.348 2.65C169.748 2.65 170.132 2.7 170.498 2.8C168.498 4.23333 166.948 5.8 165.848 7.5C164.782 9.16667 164.248 11.05 164.248 13.15C164.248 15.6167 165.065 18.4167 166.698 21.55C165.932 23.4833 165.298 25.5667 164.798 27.8C164.332 30.0333 164.098 32.2667 164.098 34.5C164.098 35.4667 164.132 36.5833 164.198 37.85C164.298 39.0833 164.465 40.3 164.698 41.5C165.698 42.5667 166.582 43.4 167.348 44C168.148 44.6 168.865 45.05 169.498 45.35C170.132 45.65 170.715 45.85 171.248 45.95C171.815 46.05 172.365 46.1333 172.898 46.2L171.598 42.9C172.732 43.5333 173.865 44.1333 174.998 44.7C176.132 45.2667 177.298 45.7667 178.498 46.2C179.698 46.6333 180.948 46.9667 182.248 47.2C183.582 47.4667 184.998 47.6 186.498 47.6C187.498 47.6 188.532 47.5667 189.598 47.5C190.698 47.4333 191.848 47.3167 193.048 47.15C190.115 48.3167 187.348 49.15 184.748 49.65C182.182 50.1833 179.748 50.45 177.448 50.45C174.515 50.45 171.798 50.0333 169.298 49.2C166.832 48.3667 164.532 47.2333 162.398 45.8C160.298 44.4 158.365 42.7667 156.598 40.9C154.865 39.0667 153.265 37.1333 151.798 35.1C150.365 33.0333 149.065 30.95 147.898 28.85C146.765 26.75 145.748 24.75 144.848 22.85V27.95C144.848 30.0167 144.915 31.75 145.048 33.15C145.182 34.55 145.398 35.7667 145.698 36.8C145.998 37.8333 146.382 38.75 146.848 39.55C147.315 40.3167 147.882 41.1 148.548 41.9C147.815 41.7 147.165 41.5 146.598 41.3C146.065 41.1 145.532 40.8667 144.998 40.6C144.498 40.3333 143.965 40 143.398 39.6C142.865 39.2 142.232 38.7 141.498 38.1C140.598 39.7 139.398 41.0833 137.898 42.25C136.398 43.4167 134.382 44.4167 131.848 45.25C132.848 44.2833 133.782 43.1833 134.648 41.95C135.515 40.75 136.265 39.4667 136.898 38.1C137.565 36.7 138.082 35.2667 138.448 33.8C138.848 32.3333 139.048 30.85 139.048 29.35C139.048 27.95 138.865 26.6 138.498 25.3C138.165 24 137.598 22.75 136.798 21.55C138.432 18.4167 139.248 15.6167 139.248 13.15C139.248 11.05 138.698 9.16667 137.598 7.5C136.532 5.8 134.998 4.23333 132.998 2.8C133.332 2.7 133.715 2.65 134.148 2.65C134.815 2.65 135.565 2.73333 136.398 2.9C137.265 3.03333 138.198 3.18333 139.198 3.35C140.232 3.51666 141.332 3.68333 142.498 3.85C143.698 3.98333 144.982 4.05 146.348 4.05C146.682 4.05 146.998 4.05 147.298 4.05C147.632 4.05 147.965 4.03333 148.298 4C146.498 4.7 145.465 5.93333 145.198 7.7C145.798 9.2 146.515 10.9333 147.348 12.9C148.215 14.8667 149.165 16.9333 150.198 19.1C151.265 21.2667 152.415 23.4667 153.648 25.7C154.882 27.9 156.165 30 157.498 32L158.498 33.5ZM173.077 40C173.577 39.7 174.011 39.1333 174.377 38.3C174.777 37.4667 175.111 36.5167 175.377 35.45C175.677 34.3833 175.894 33.2833 176.027 32.15C176.161 30.9833 176.227 29.9167 176.227 28.95C176.227 27.45 176.061 26.0167 175.727 24.65C175.427 23.2833 174.994 22.25 174.427 21.55C174.961 21.0167 175.394 20.3167 175.727 19.45C176.094 18.55 176.377 17.6 176.577 16.6C176.777 15.5667 176.911 14.5167 176.977 13.45C177.044 12.3833 177.077 11.3833 177.077 10.45C177.077 9.68333 177.061 9.01667 177.027 8.45C176.994 7.88333 176.961 7.45 176.927 7.15C176.161 6.88333 175.361 6.33333 174.527 5.5C173.727 4.66666 173.127 3.76667 172.727 2.8C174.861 3.03333 176.877 3.2 178.777 3.3C180.711 3.36666 182.527 3.4 184.227 3.4C187.861 3.4 190.794 3.28333 193.027 3.05C195.261 2.81666 197.027 2.7 198.327 2.7C198.594 2.7 198.827 2.71666 199.027 2.75C199.227 2.75 199.411 2.76666 199.577 2.8C199.377 3.16667 199.161 3.83333 198.927 4.8C198.727 5.76667 198.527 6.83333 198.327 8C198.127 9.13333 197.944 10.25 197.777 11.35C197.644 12.4167 197.544 13.2167 197.477 13.75L197.127 13.9C195.961 13.2333 195.111 12.4833 194.577 11.65C194.077 10.8167 193.694 9.81667 193.427 8.65C192.961 8.28333 192.377 8.05 191.677 7.95C190.977 7.85 190.094 7.8 189.027 7.8C188.161 7.8 187.327 7.81666 186.527 7.85C185.727 7.88333 185.094 7.9 184.627 7.9C184.361 9.2 184.161 10.7833 184.027 12.65C183.894 14.5167 183.794 16.5 183.727 18.6C184.194 18.6667 184.661 18.7167 185.127 18.75C185.627 18.75 186.011 18.75 186.277 18.75C186.977 18.75 187.661 18.4833 188.327 17.95C189.027 17.3833 189.694 16.6667 190.327 15.8C190.494 16.2 190.661 16.6667 190.827 17.2C190.994 17.7 191.177 18.2167 191.377 18.75C191.611 19.25 191.861 19.7333 192.127 20.2C192.394 20.6667 192.711 21.0167 193.077 21.25C192.777 21.55 192.477 21.9333 192.177 22.4C191.911 22.8667 191.644 23.3667 191.377 23.9C191.144 24.4333 190.911 24.9667 190.677 25.5C190.477 26.0333 190.294 26.5167 190.127 26.95C189.927 26.5833 189.694 26.1833 189.427 25.75C189.161 25.3167 188.877 24.9167 188.577 24.55C188.277 24.1833 187.944 23.8833 187.577 23.65C187.244 23.3833 186.877 23.25 186.477 23.25C186.177 23.25 185.744 23.2667 185.177 23.3C184.611 23.3333 184.094 23.4 183.627 23.5V24.4C183.627 26.5 183.644 28.5 183.677 30.4C183.744 32.2667 183.844 33.9 183.977 35.3L192.427 36.15C192.894 34.0833 193.711 32.25 194.877 30.65C196.077 29.05 197.361 27.5 198.727 26L199.027 26.1C198.927 26.8667 198.861 27.6333 198.827 28.4C198.794 29.1333 198.777 29.85 198.777 30.55C198.777 32.2833 198.861 33.85 199.027 35.25C199.194 36.65 199.394 37.7 199.627 38.4C199.061 38.4667 198.494 38.5667 197.927 38.7C197.394 38.8 196.811 38.9833 196.177 39.25C195.544 39.5167 194.861 39.8833 194.127 40.35C193.427 40.8167 192.644 41.4167 191.777 42.15C188.977 41.3167 186.211 40.6833 183.477 40.25C180.744 39.85 178.277 39.65 176.077 39.65C175.011 39.65 174.027 39.8167 173.127 40.15L173.077 40ZM236.03 3.55C235.23 4.25 234.346 4.91667 233.38 5.55C232.446 6.18333 231.463 6.73333 230.43 7.2C229.396 7.66667 228.33 8.05 227.23 8.35C226.13 8.61667 225.03 8.75 223.93 8.75C223.563 8.75 223.213 8.75 222.88 8.75C222.546 8.75 222.213 8.73333 221.88 8.7C221.78 9.7 221.73 10.7167 221.73 11.75C221.73 14.5833 221.746 17.4333 221.78 20.3C221.813 23.1667 221.83 26.2167 221.83 29.45C221.83 31.1833 222.13 32.8667 222.73 34.5C223.363 36.1 224.263 37.2667 225.43 38C224.03 38.6667 222.846 39.3667 221.88 40.1C220.946 40.8667 220.113 41.95 219.38 43.35C218.813 41.9833 217.93 40.8833 216.73 40.05C215.53 39.25 214.18 38.5667 212.68 38C213.346 37.0333 213.846 35.7833 214.18 34.25C214.513 32.6833 214.68 31.1667 214.68 29.7C214.68 28.2667 214.68 27 214.68 25.9C214.68 24.7667 214.68 23.7167 214.68 22.75C214.713 21.7833 214.73 20.85 214.73 19.95C214.763 19.05 214.78 18.0833 214.78 17.05C214.813 16.0167 214.83 14.8833 214.83 13.65C214.83 12.4167 214.83 10.9667 214.83 9.3C214.83 9.03333 214.83 8.78333 214.83 8.55C214.83 8.31667 214.796 8.06666 214.73 7.8C212.53 7.4 210.43 7 208.43 6.6C206.463 6.16666 204.663 5.95 203.03 5.95C202.296 5.95 201.513 6.03333 200.68 6.2L200.63 6.05C202.43 5.51666 203.896 4.86666 205.03 4.1C206.196 3.33333 207.363 2.41666 208.53 1.35C210.263 1.85 211.73 2.25 212.93 2.55C214.163 2.85 215.296 3.08333 216.33 3.25C217.396 3.41667 218.43 3.53333 219.43 3.6C220.463 3.63333 221.63 3.65 222.93 3.65C222.596 3.08333 222.363 2.58333 222.23 2.15C222.096 1.68333 222.013 1.2 221.98 0.699999C223.08 1.4 224.096 1.95 225.03 2.35C225.996 2.71666 226.913 3 227.78 3.2C228.646 3.36667 229.513 3.46667 230.38 3.5C231.246 3.53333 232.146 3.55 233.08 3.55C233.613 3.55 234.096 3.53333 234.53 3.5C234.996 3.46667 235.463 3.41667 235.93 3.35L236.03 3.55Z" fill="#E10914"/>
</svg>
